<svg xmlns="http://www.w3.org/2000/svg" viewBox="0 0 512 512">
  <defs><radialGradient id="bg" cx="50%" cy="42%" r="72%"><stop offset="0" stop-color="#121a31"/><stop offset="1" stop-color="#070b18"/></radialGradient><linearGradient id="mark" x1="50%" y1="20%" x2="36%" y2="88%"><stop offset="0" stop-color="#fff"/><stop offset=".7" stop-color="#e8edff"/><stop offset="1" stop-color="#7468f5"/></linearGradient></defs>
  <rect x="20" y="20" width="472" height="472" rx="122" fill="url(#bg)"/>
  <path fill="url(#mark)" d="M347 105c-51-29-120-19-170 24-37 31-48 67-29 94 13 19 40 33 75 50 53 25 107 53 108 107 0 27-13 51-36 70 51-20 79-54 82-97 4-61-49-92-111-121-39-19-65-33-65-55 0-18 17-35 40-42 38-12 81 0 105 32 18 24 23 50 27 83 13-63 14-115-26-145Z"/>
  <path fill="url(#mark)" d="M142 276c16 26 44 32 78 39 43 9 76 18 82 52 7 41-27 70-76 85-28 9-52 17-77 37 30-45 73-55 104-72 20-11 31-27 27-45-5-25-31-35-65-44-40-11-62-23-73-52Z"/>
  <path fill="url(#mark)" d="M237 164c14 3 28 18 30 31-14 1-29-12-30-31Zm81 0c-14 3-28 18-30 31 14 1 29-12 30-31Z"/>
</svg>
